<svg aria-hidden="true" style="position: absolute; width: 0; height: 0; overflow: hidden;" version="1.1" xmlns="http://www.w3.org/2000/svg" xmlns:xlink="http://www.w3.org/1999/xlink">
<defs>
<symbol id="icon-location" viewBox="0 0 32 32">
<path d="M32 14h-3.154c-0.864-5.57-5.276-9.982-10.846-10.846v-3.154h-4v3.154c-5.57 0.864-9.982 5.276-10.846 10.846h-3.154v4h3.154c0.864 5.57 5.276 9.982 10.846 10.846v3.154h4v-3.154c5.57-0.864 9.982-5.276 10.846-10.846h3.154v-4zM24.776 14h-3.118c-0.603-1.705-1.953-3.056-3.658-3.658v-3.118c3.36 0.765 6.010 3.416 6.776 6.776zM16 18c-1.105 0-2-0.895-2-2s0.895-2 2-2c1.105 0 2 0.895 2 2s-0.895 2-2 2zM14 7.224v3.118c-1.705 0.603-3.056 1.953-3.658 3.658h-3.118c0.765-3.36 3.416-6.010 6.776-6.776zM7.224 18h3.118c0.603 1.705 1.953 3.056 3.658 3.658v3.118c-3.36-0.765-6.010-3.416-6.776-6.776zM18 24.776v-3.118c1.705-0.603 3.056-1.953 3.658-3.658h3.118c-0.765 3.36-3.416 6.010-6.776 6.776z"></path>
</symbol>
<symbol id="icon-search" viewBox="0 0 24 24">
<path d="M16.041 15.856c-0.034 0.026-0.067 0.055-0.099 0.087s-0.060 0.064-0.087 0.099c-1.258 1.213-2.969 1.958-4.855 1.958-1.933 0-3.682-0.782-4.95-2.050s-2.050-3.017-2.050-4.95 0.782-3.682 2.050-4.95 3.017-2.050 4.95-2.050 3.682 0.782 4.95 2.050 2.050 3.017 2.050 4.95c0 1.886-0.745 3.597-1.959 4.856zM21.707 20.293l-3.675-3.675c1.231-1.54 1.968-3.493 1.968-5.618 0-2.485-1.008-4.736-2.636-6.364s-3.879-2.636-6.364-2.636-4.736 1.008-6.364 2.636-2.636 3.879-2.636 6.364 1.008 4.736 2.636 6.364 3.879 2.636 6.364 2.636c2.125 0 4.078-0.737 5.618-1.968l3.675 3.675c0.391 0.391 1.024 0.391 1.414 0s0.391-1.024 0-1.414z"></path>
</symbol>
</defs>
<symbol id="icon-sunrise" viewBox="0 0 48 48">
<path d="M36 36c0-3.314-1.346-6.316-3.514-8.486s-5.172-3.514-8.486-3.514-6.316 1.346-8.486 3.514-3.514 5.172-3.514 8.486c0 1.104 0.896 2 2 2s2-0.896 2-2c0-2.21 0.894-4.206 2.344-5.656s3.446-2.344 5.656-2.344 4.206 0.894 5.656 2.344 2.344 3.446 2.344 5.656c0 1.104 0.896 2 2 2s2-0.896 2-2zM7.026 21.854l2.84 2.84c0.782 0.782 2.048 0.782 2.828 0s0.782-2.048 0-2.828l-2.84-2.84c-0.782-0.782-2.048-0.782-2.828 0s-0.782 2.048 0 2.828zM2 38h4c1.104 0 2-0.896 2-2s-0.896-2-2-2h-4c-1.104 0-2 0.896-2 2s0.896 2 2 2zM42 38h4c1.104 0 2-0.896 2-2s-0.896-2-2-2h-4c-1.104 0-2 0.896-2 2s0.896 2 2 2zM38.134 24.694l2.84-2.84c0.782-0.782 0.782-2.048 0-2.828s-2.048-0.782-2.828 0l-2.84 2.84c-0.782 0.782-0.782 2.048 0 2.828s2.048 0.782 2.828 0zM46 42h-44c-1.104 0-2 0.896-2 2s0.896 2 2 2h44c1.104 0 2-0.896 2-2s-0.896-2-2-2zM17.414 13.414l4.586-4.586v9.172c0 1.104 0.896 2 2 2s2-0.896 2-2v-9.172l4.586 4.586c0.782 0.782 2.048 0.782 2.828 0s0.782-2.048 0-2.828l-8-8c-0.184-0.184-0.404-0.332-0.648-0.434-0.49-0.202-1.042-0.202-1.532 0-0.236 0.098-0.456 0.242-0.648 0.434l-8 8c-0.782 0.782-0.782 2.048 0 2.828s2.048 0.782 2.828 0z"></path>
</symbol>
<symbol id="icon-sunset" viewBox="0 0 48 48">
<path d="M36 36c0-3.314-1.346-6.316-3.514-8.486s-5.172-3.514-8.486-3.514-6.316 1.346-8.486 3.514-3.514 5.172-3.514 8.486c0 1.104 0.896 2 2 2s2-0.896 2-2c0-2.21 0.894-4.206 2.344-5.656s3.446-2.344 5.656-2.344 4.206 0.894 5.656 2.344 2.344 3.446 2.344 5.656c0 1.104 0.896 2 2 2s2-0.896 2-2zM7.026 21.854l2.84 2.84c0.782 0.782 2.048 0.782 2.828 0s0.782-2.048 0-2.828l-2.84-2.84c-0.782-0.782-2.048-0.782-2.828 0s-0.782 2.048 0 2.828zM2 38h4c1.104 0 2-0.896 2-2s-0.896-2-2-2h-4c-1.104 0-2 0.896-2 2s0.896 2 2 2zM42 38h4c1.104 0 2-0.896 2-2s-0.896-2-2-2h-4c-1.104 0-2 0.896-2 2s0.896 2 2 2zM38.134 24.694l2.84-2.84c0.782-0.782 0.782-2.048 0-2.828s-2.048-0.782-2.828 0l-2.84 2.84c-0.782 0.782-0.782 2.048 0 2.828s2.048 0.782 2.828 0zM46 42h-44c-1.104 0-2 0.896-2 2s0.896 2 2 2h44c1.104 0 2-0.896 2-2s-0.896-2-2-2zM30.586 8.586l-4.586 4.586v-9.172c0-1.104-0.896-2-2-2s-2 0.896-2 2v9.172l-4.586-4.586c-0.782-0.782-2.048-0.782-2.828 0s-0.782 2.048 0 2.828l8 8c0.192 0.192 0.412 0.336 0.648 0.434s0.494 0.152 0.766 0.152 0.53-0.054 0.766-0.152c0.236-0.098 0.456-0.242 0.648-0.434l8-8c0.782-0.782 0.782-2.048 0-2.828s-2.048-0.782-2.828 0z"></path>
</symbol>
<symbol id="icon-humidity" viewBox="0 0 38 32">
<path d="M0.201 0.584c0 0.403 0.161 0.483 1.409 0.725 0.382 0.081 0.805 0.201 0.906 0.282 0.624 0.423 2.536 0.886 3.703 0.886 0.986 0 1.811-0.161 3.24-0.664 1.208-0.403 2.314-0.664 3.019-0.664 1.006-0.020 3.22 0.503 3.723 0.886 0.463 0.342 2.636 0.584 3.723 0.382 1.047-0.181 2.274-0.564 2.717-0.825 0.644-0.403 2.556-0.604 3.683-0.382 0.624 0.141 1.248 0.302 1.348 0.382 0.443 0.262 1.67 0.644 2.717 0.825 1.107 0.201 3.079-0.020 3.804-0.403 0.483-0.282 2.194-0.805 2.596-0.805 0.423 0 0.845-0.382 0.845-0.745 0-0.141-0.221-0.262-0.463-0.262-0.523 0-2.677 0.664-3.703 1.127-1.107 0.503-2.959 0.362-5.192-0.423-2.636-0.906-3.603-0.906-6.239 0-2.435 0.845-3.965 0.926-5.575 0.282-1.831-0.725-2.838-0.986-3.904-0.986-0.986 0-3.18 0.564-4.005 1.047-0.221 0.121-1.067 0.262-1.872 0.322-1.389 0.081-1.852 0-3.764-0.745-1.831-0.725-2.717-0.805-2.717-0.242z"></path>
<path d="M0.201 10.063c0 0.302 0.141 0.403 0.503 0.403 0.262 0 0.745 0.101 1.047 0.221s0.745 0.302 0.966 0.382c0.221 0.081 0.745 0.302 1.167 0.483 1.208 0.523 3.562 0.423 5.273-0.201 0.765-0.282 1.57-0.584 1.751-0.704 0.745-0.403 2.636-0.201 4.387 0.463 1.852 0.704 4.367 0.966 5.394 0.604 0.302-0.121 1.167-0.443 1.952-0.725 1.912-0.704 3.24-0.684 5.233 0.101 2.677 1.047 4.347 1.047 7.346-0.020 1.047-0.362 2.033-0.684 2.174-0.725 0.121-0.040 0.242-0.201 0.242-0.382 0-0.342-1.369-0.423-1.972-0.121-0.181 0.101-0.946 0.423-1.711 0.704-1.771 0.684-3.24 0.684-4.87 0.020-0.664-0.282-1.369-0.503-1.55-0.503s-0.403-0.101-0.463-0.201c-0.181-0.302-3.301-0.242-4.226 0.101-0.443 0.161-1.308 0.463-1.912 0.704-0.604 0.221-1.55 0.403-2.113 0.403-0.886 0-3.14-0.664-4.166-1.228-0.463-0.242-3.683-0.242-4.146 0-1.067 0.584-3.28 1.228-4.226 1.228-1.026 0-1.57-0.161-4.126-1.187-0.302-0.121-0.865-0.221-1.248-0.221-0.564 0-0.704 0.081-0.704 0.403z"></path>
<path d="M0.201 19.482c0 0.322 0.161 0.423 0.765 0.483 0.403 0.060 1.509 0.382 2.455 0.725 2.093 0.785 3.603 0.845 5.233 0.221 0.604-0.241 1.308-0.463 1.57-0.523 0.242-0.060 0.503-0.181 0.564-0.282 0.121-0.201 3.361-0.241 3.582-0.040 0.060 0.081 0.463 0.262 0.886 0.403 2.979 1.107 4.065 1.127 6.48 0.221 1.449-0.564 1.972-0.664 3.421-0.664s1.972 0.101 3.421 0.664c1.187 0.443 2.053 0.644 2.818 0.644 1.288 0 2.234-0.262 4.528-1.228 0.221-0.101 0.664-0.201 1.006-0.221 0.382-0.040 0.624-0.181 0.664-0.423 0.060-0.282-0.081-0.342-0.906-0.342-0.543 0-1.067 0.081-1.187 0.181-0.101 0.081-0.684 0.322-1.288 0.523s-1.308 0.423-1.57 0.523c-0.845 0.322-1.932 0.181-3.663-0.483-1.53-0.584-1.932-0.644-3.824-0.644s-2.294 0.060-3.824 0.644c-1.731 0.664-2.818 0.805-3.663 0.483-0.262-0.101-0.966-0.322-1.57-0.523s-1.187-0.443-1.288-0.523c-0.262-0.241-4.206-0.241-4.468 0-0.101 0.081-0.684 0.322-1.288 0.523s-1.308 0.423-1.57 0.523c-0.825 0.322-1.791 0.201-3.603-0.443-0.966-0.362-2.194-0.684-2.717-0.725-0.865-0.081-0.966-0.060-0.966 0.302z"></path>
<path d="M0.201 28.86c0 0.463 0.080 0.523 0.704 0.523 0.382 0 1.026 0.141 1.449 0.322s0.946 0.403 1.167 0.483c0.221 0.081 0.664 0.262 0.966 0.382 1.328 0.523 3.28 0.241 5.816-0.865 0.966-0.423 3.582-0.423 4.548 0 2.053 0.906 2.737 1.087 3.965 1.087 0.966 0 1.791-0.181 2.818-0.604 2.697-1.107 4.347-1.107 7.044 0 2.234 0.926 3.945 0.785 6.883-0.523 0.342-0.161 0.845-0.282 1.127-0.282 0.584 0 1.107-0.523 0.825-0.805-0.262-0.262-1.63 0.020-3.401 0.704-2.033 0.805-3.542 0.765-5.635-0.101-1.389-0.584-1.831-0.684-3.321-0.684s-1.932 0.101-3.321 0.684c-2.455 1.006-3.925 0.926-6.742-0.362-0.483-0.221-1.288-0.322-2.516-0.322-1.731-0.020-2.234 0.101-3.743 0.886-0.161 0.081-0.825 0.262-1.469 0.403-1.288 0.262-2.335 0.101-4.327-0.704-0.624-0.262-1.509-0.523-1.972-0.604-0.825-0.121-0.865-0.121-0.865 0.382z"></path>
</symbol>
<symbol id="icon-pressure" viewBox="0 0 32 32">
<path d="M10.041 4.193c-5.021 2.483-7.614 7.172-7.172 12.91 0.331 4.248 2.538 7.945 6.179 10.207 2.428 1.49 3.2 1.655 6.952 1.655s4.524-0.166 6.952-1.655c1.655-1.048 3.31-2.703 4.359-4.359 1.49-2.428 1.655-3.2 1.655-6.952s-0.166-4.524-1.655-6.952c-3.641-5.848-11.145-8-17.269-4.855zM20.303 5.297c9.6 3.972 9.6 17.434 0 21.407-7.338 3.090-15.834-2.593-15.89-10.593-0.055-8.11 8.497-13.959 15.89-10.814z"></path>
<path d="M13.297 8c-0.11 0.993 1.766 8.221 2.538 10.097 0.441 0.993 1.048 1.655 1.324 1.434 0.717-0.441 0.166-3.090-1.434-6.566-0.662-1.545-1.49-3.366-1.821-4.138s-0.607-1.159-0.607-0.828z"></path>
<path d="M17.931 8.331c-0.221 0.331-0.276 0.717-0.11 0.883 0.386 0.386 1.49-0.331 1.49-0.993s-0.938-0.662-1.379 0.11z"></path>
<path d="M8.607 10.979c-0.221 0.331 0.166 0.828 0.772 1.159 1.269 0.662 1.49-0.11 0.331-1.048-0.497-0.441-0.883-0.441-1.103-0.11z"></path>
<path d="M21.848 11.31c-0.221 0.662-0.055 0.883 0.607 0.717 0.993-0.166 1.159-1.103 0.276-1.434-0.276-0.055-0.662 0.221-0.883 0.717z"></path>
<path d="M7.172 16.331c0 0.828 1.434 1.048 1.876 0.276 0.166-0.276-0.166-0.607-0.772-0.772-0.717-0.166-1.103 0-1.103 0.497z"></path>
<path d="M23.448 16c-1.048 0.386-1.048 0.441-0.11 0.828 1.048 0.441 1.71 0.11 1.434-0.717-0.11-0.276-0.717-0.331-1.324-0.11z"></path>
<path d="M20.966 20.303c0 0.883 1.545 1.876 1.876 1.269 0.221-0.331-0.166-0.828-0.772-1.159s-1.103-0.386-1.103-0.11z"></path>
<path d="M9.214 20.745c-0.441 0.441 0.055 1.324 0.717 1.324 0.221 0 0.552-0.386 0.772-0.828 0.276-0.828-0.772-1.159-1.49-0.497z"></path>
</symbol>
<symbol id="icon-wind" viewBox="0 0 32 32">
<path d="M21.333 0.96c-3.627 1.813-5.493 6.827-3.040 8.32 1.28 0.8 2.613-0.16 3.147-2.24 0.8-2.987 3.84-3.52 5.547-0.96 0.587 0.96 0.64 1.6 0.267 2.667-0.32 0.747-0.64 1.44-0.693 1.493-0.107 0.053-5.92 0.267-12.907 0.427-11.36 0.213-12.8 0.373-13.333 1.173-0.427 0.693-0.427 1.227 0 1.867 0.533 0.853 1.867 0.96 13.067 1.12 14.507 0.16 15.36-0.053 17.44-4.16 1.92-3.787 0.533-7.893-3.253-9.653-2.773-1.227-3.893-1.28-6.24-0.053zM27.787 2.293c2.56 1.707 3.573 4.747 2.453 7.413-0.48 1.12-1.6 2.453-2.613 3.093-1.653 1.013-2.507 1.067-14.027 0.96-10.507-0.16-12.267-0.267-12.267-0.96s1.867-0.853 12.32-1.067c11.2-0.267 12.48-0.373 13.493-1.28 1.493-1.387 1.547-4.587 0.053-5.92-2.24-2.027-6.613-0.373-7.040 2.613-0.107 0.587-0.587 1.173-1.067 1.28-1.547 0.32-1.227-2.72 0.48-4.693 2.453-2.933 5.28-3.413 8.213-1.44z"></path>
<path d="M1.333 8.533c-0.213 0.32 1.493 0.533 4.8 0.533s5.013-0.213 4.8-0.533c-0.16-0.32-2.347-0.533-4.8-0.533s-4.64 0.213-4.8 0.533z"></path>
<path d="M13.067 8.533c-0.16 0.267 0.053 0.533 0.533 0.533s0.693-0.267 0.533-0.533c-0.16-0.32-0.427-0.533-0.533-0.533s-0.373 0.213-0.533 0.533z"></path>
<path d="M0.64 17.173c-0.853 0.853-0.8 1.76 0.213 2.773 0.693 0.747 2.613 0.853 12.693 0.853 12.48 0 13.173 0.107 13.867 2.453 0.48 1.6-1.227 3.52-3.147 3.52-1.6 0-2.933-1.28-2.933-2.773 0-2.293-3.467-2.987-4.053-0.8-1.12 4.587 4.16 9.067 9.067 7.68 3.467-0.96 6.080-5.173 5.28-8.427-0.48-2.027-2.187-4.213-3.893-5.12-2.027-1.067-26.080-1.173-27.093-0.16zM28.64 19.36c1.653 1.547 1.92 2.133 1.973 4.16 0.16 6.187-6.827 9.013-10.88 4.427-1.92-2.24-2.24-5.013-0.533-5.013 0.747 0 1.067 0.373 1.067 1.173 0 1.813 2.027 3.627 4.107 3.627 3.733 0 5.387-4.587 2.507-6.88-1.333-1.067-2.080-1.12-13.333-1.12-11.413 0-13.067-0.213-12.213-1.6 0.213-0.32 5.067-0.533 12.853-0.533h12.48l1.973 1.76z"></path>
<path d="M1.333 22.933c0.213 0.32 2.933 0.533 6.4 0.533s6.187-0.213 6.4-0.533c0.213-0.32-2.027-0.533-6.4-0.533s-6.613 0.213-6.4 0.533z"></path>
</symbol>
<symbol id="icon-uv" viewBox="0 0 32 32">
<path d="M7.338 3.421c-1.324 1.49-4.028 6.124-4.028 6.841 0 0.276 0.883-0.993 1.931-2.814s2.428-3.752 3.090-4.303c0.662-0.497 0.938-0.938 0.662-0.938s-1.048 0.552-1.655 1.214z"></path>
<path d="M23.559 3.034c0.662 0.441 2.097 2.428 3.2 4.414s2.097 3.586 2.262 3.586c0.497 0-3.090-6.179-4.359-7.614-0.607-0.662-1.379-1.214-1.71-1.214s-0.055 0.386 0.607 0.828z"></path>
<path d="M10.097 5.628c-0.662 0.331-1.324 0.938-1.49 1.379-0.221 0.497 0.166 0.386 1.103-0.331 1.214-0.993 2.262-1.159 6.29-1.159s5.076 0.166 6.4 1.159l1.6 1.159-1.545-1.434c-1.434-1.324-1.931-1.434-6.345-1.379-2.648 0-5.352 0.276-6.014 0.607z"></path>
<path d="M7.172 9.379c-0.331 0.607-0.441 1.103-0.331 1.103 0.166 0 0.552-0.497 0.883-1.103s0.441-1.103 0.331-1.103c-0.166 0-0.552 0.497-0.883 1.103z"></path>
<path d="M25.766 12.083l2.097 3.917-1.821 3.421c-0.993 1.931-1.324 2.869-0.717 2.097s1.545-2.317 2.097-3.531l0.938-2.097-1.876-3.586c-1.048-1.986-2.152-3.697-2.372-3.862-0.276-0.166 0.497 1.49 1.655 3.641z"></path>
<path d="M10.207 10.483c0.552 0.607 1.103 1.103 1.269 1.103s-0.166-0.497-0.717-1.103c-0.552-0.607-1.103-1.103-1.269-1.103s0.166 0.497 0.717 1.103z"></path>
<path d="M21.186 10.593l-1.048 1.269 1.269-1.048c1.159-0.993 1.49-1.434 1.048-1.434-0.11 0-0.662 0.552-1.269 1.214z"></path>
<path d="M14.014 11.034c-2.152 0.828-3.641 3.366-3.31 5.462 1.048 6.621 10.538 6.124 10.538-0.552 0-1.876-0.331-2.538-1.821-3.862-1.821-1.6-3.31-1.931-5.407-1.048zM19.586 12.69c1.545 1.545 1.49 5.131-0.166 6.731-1.545 1.6-5.021 1.71-6.676 0.221-2.372-2.152-1.821-6.4 1.048-7.89 1.71-0.938 4.359-0.497 5.793 0.938z"></path>
<path d="M12.8 15.724c0 0.883 0.11 1.214 0.276 0.662 0.11-0.497 0.11-1.269 0-1.655-0.166-0.331-0.276 0.055-0.276 0.993z"></path>
<path d="M14.952 15.834c0 0.938-0.386 1.876-0.717 1.986-0.552 0.221-0.552 0.331 0 0.331 0.883 0.055 1.379-1.159 1.048-2.814-0.166-0.993-0.276-0.883-0.331 0.497z"></path>
<path d="M16 14.4c0 0.166 0.276 1.159 0.607 2.097 0.497 1.324 0.772 1.655 1.269 1.159 0.441-0.441 0.441-0.717 0-0.993-0.331-0.221-0.883-0.883-1.214-1.49s-0.662-0.938-0.662-0.772z"></path>
<path d="M4.855 13.462c-1.159 2.428-1.159 2.483-0.166 4.745 0.552 1.269 1.214 2.372 1.49 2.538s-0.11-0.828-0.772-2.207l-1.214-2.538 1.214-2.483c0.662-1.379 1.048-2.483 0.938-2.483-0.166 0-0.828 1.103-1.49 2.428z"></path>
<path d="M30.069 13.076c0.441 0.993 0.828 2.262 0.828 2.924s-0.386 1.931-0.828 2.924c-0.828 1.6-0.828 1.655 0 0.662 0.497-0.607 0.993-1.655 1.214-2.372 0.386-1.545-0.11-3.366-1.214-4.8-0.828-0.993-0.828-0.938 0 0.662z"></path>
<path d="M0.772 14.621c-0.441 1.71 0 3.531 1.159 4.966 0.772 0.938 0.772 0.883-0.055-0.772-0.552-1.159-0.772-2.593-0.607-3.752 0.386-2.152 0-2.428-0.497-0.441z"></path>
<path d="M10.152 21.628l-1.048 1.269 1.269-1.048c1.159-0.993 1.49-1.434 1.048-1.434-0.11 0-0.662 0.552-1.269 1.214z"></path>
<path d="M21.241 21.517c0.552 0.607 1.103 1.103 1.269 1.103s-0.166-0.497-0.717-1.103c-0.552-0.607-1.103-1.103-1.269-1.103s0.166 0.497 0.717 1.103z"></path>
<path d="M4.414 24.11c1.931 3.476 3.752 5.683 4.634 5.683 0.331 0 0.055-0.386-0.607-0.828s-2.097-2.428-3.2-4.414c-1.103-1.986-2.097-3.586-2.262-3.586s0.497 1.434 1.434 3.145z"></path>
<path d="M26.759 24.552c-1.103 1.986-2.538 3.972-3.2 4.414s-0.938 0.828-0.607 0.828c0.331 0 1.103-0.552 1.71-1.269 1.269-1.379 4.855-7.559 4.359-7.559-0.166 0-1.159 1.6-2.262 3.586z"></path>
<path d="M8.607 24.993c0.497 1.379 2.924 2.041 7.669 2.041 4.193 0 4.745-0.11 6.179-1.434l1.545-1.434-1.6 1.159c-1.324 0.993-2.372 1.159-6.4 1.159s-5.076-0.166-6.29-1.159c-0.938-0.717-1.324-0.828-1.103-0.331z"></path>
</symbol>
</svg>
